#!OML:ASF F:\VICON\USERDATA\INSTALL\rory3\rory3.ASF
:FULLY-SPECIFIED
:DEGREES
385
root 2.09322 17.7482 8.93995 354.647 14.0633 358.965
lowerback 11.3952 0.494358 -4.26499
upperback 0.876479 0.199331 1.39142
thorax -5.4975 0.218643 3.84216
lowerneck -10.7907 -10.2043 -14.5254
upperneck 30.7103 -15.9639 13.6261
head 14.8367 -7.07575 5.33697
rclavicle -2.70475e-015 -1.47163e-014
rhumerus -44.7589 -27.822 -67.0155
rradius 33.4999
rwrist 6.74849
rhand -23.0957 7.67977
rfingers 7.12502
rthumb 3.3507 -22.2736
lclavicle -2.70475e-015 -1.47163e-014
lhumerus -34.5882 11.369 74.0753
lradius 28.5549
lwrist -5.69082
lhand -19.8076 29.5026
lfingers 7.12502
lthumb 6.52554 59.382
rfemur -4.80227 1.50933 0.662781
rtibia 27.2272
rfoot 10.448 -9.23917
rtoes 19.5515
lfemur 3.64712 -4.82911 -10.6764
ltibia 19.4775
lfoot -9.64267 8.03618
ltoes -24.6176
386
root 1.98627 17.7191 8.98304 354.673 13.9032 359.191
lowerback 11.3286 0.478222 -4.47515
upperback 0.925956 0.15227 1.34917
thorax -5.40388 0.196599 3.92374
lowerneck -10.9024 -10.172 -14.6051
upperneck 30.5888 -15.8654 13.6267
head 14.7946 -7.03973 5.35992
rclavicle -4.08227e-015 1.22594e-014
rhumerus -44.4099 -27.7357 -67.2175
rradius 33.5373
rwrist 6.5712
rhand -23.1139 7.66012
rfingers 7.12502
rthumb 3.33312 -22.2936
lclavicle -4.08227e-015 1.22594e-014
lhumerus -34.6819 11.6649 73.8807
lradius 28.5572
lwrist -5.51754
lhand -20.0741 29.6887
lfingers 7.12502
lthumb 6.26824 59.576
rfemur -4.53214 1.79262 0.564603
rtibia 27.1621
rfoot 9.17949 -8.37
rtoes 13.6663
lfemur 3.76684 -5.08947 -10.5362
ltibia 19.5139
lfoot -9.71479 8.2487
ltoes -24.6362
387
root 1.87289 17.6927 9.02719 354.691 13.7365 359.238
lowerback 11.2832 0.457345 -4.61088
upperback 0.899628 0.111128 1.38879
thorax -5.40264 0.180401 4.04926
lowerneck -11.0232 -10.1641 -14.6865
upperneck 30.5804 -15.7749 13.4992
head 14.7933 -7.01951 5.33097
rclavicle -1.43424e-014 3.6154e-015
rhumerus -44.2246 -27.5713 -67.338
rradius 33.6072
rwrist 6.385
rhand -23.0257 7.70406
rfingers 7.12502
rthumb 3.41826 -22.2483
lclavicle -1.43424e-014 3.6154e-015
lhumerus -34.7593 12.0496 73.62
lradius 28.3437
lwrist -5.72813
lhand -20.005 29.9283
lfingers 7.12502
lthumb 6.33502 59.8136
rfemur -4.26803 2.1513 0.750998
rtibia 27.0432
rfoot 7.31759 -8.26996
rtoes 7.90332
lfemur 3.76105 -5.37763 -10.1615
ltibia 19.7195
lfoot -9.68999 8.38762
ltoes -24.6398
388
root 1.75509 17.6717 9.06552 354.78 13.5746 359.175
lowerback 11.2344 0.410533 -4.61973
upperback 0.810528 0.0510018 1.43444
thorax -5.46337 0.154859 4.11237
lowerneck -11.0756 -10.1291 -14.7509
upperneck 30.5976 -15.6616 13.3777
head 14.7828 -6.99031 5.31085
rclavicle -1.05674e-014 1.40392e-015
rhumerus -44.1581 -27.4186 -67.4909
rradius 33.7582
rwrist 6.32472
rhand -23.1731 7.66587
rfingers 7.12502
rthumb 3.27594 -22.2887
lclavicle -1.05674e-014 1.40392e-015
lhumerus -34.8194 12.4574 73.2722
lradius 28.1039
lwrist -6.35019
lhand -19.3072 30.1108
lfingers 7.12502
lthumb 7.00861 59.9748
rfemur -4.03599 2.34128 1.12553
rtibia 26.8354
rfoot 5.54965 -8.30618
rtoes 4.50877
lfemur 3.55839 -5.65465 -9.63656
ltibia 20.0534
lfoot -9.56902 8.49604
ltoes -24.9615
389
root 1.63581 17.6519 9.1066 354.804 13.4069 359.132
lowerback 11.2093 0.378556 -4.59134
upperback 0.762755 0.0118003 1.42566
thorax -5.49565 0.136512 4.09323
lowerneck -11.0832 -10.1054 -14.738
upperneck 30.5556 -15.5951 13.2948
head 14.7403 -6.97077 5.28392
rclavicle 1.16487e-014 -4.78326e-015
rhumerus -44.0251 -27.3136 -67.7189
rradius 33.8753
rwrist 6.28598
rhand -23.315 7.405
rfingers 7.12502
rthumb 3.13889 -22.5516
lclavicle 1.16487e-014 -4.78326e-015
lhumerus -34.9186 12.5564 73.0041
lradius 27.8965
lwrist -6.22894
lhand -19.7122 29.1837
lfingers 7.12502
lthumb 6.61765 59.0603
rfemur -3.75695 2.47342 1.49832
rtibia 26.5702
rfoot 4.11483 -8.1512
rtoes 1.30897
lfemur 3.43863 -5.87936 -9.13796
ltibia 20.3977
lfoot -9.45856 8.61747
ltoes -25.6896
390
root 1.51244 17.6301 9.15428 354.812 13.1958 359.145
lowerback 11.2176 0.368484 -4.63756
upperback 0.672055 -0.0119911 1.38285
thorax -5.59375 0.129779 4.07865
lowerneck -11.1191 -10.0656 -14.7331
upperneck 30.6375 -15.543 13.2819
head 14.7738 -6.94834 5.29064
rclavicle -1.22348e-014 5.00689e-015
rhumerus -44.0208 -27.1833 -67.9438
rradius 34.0099
rwrist 6.09766
rhand -23.3394 7.34054
rfingers 7.12502
rthumb 3.11536 -22.6164
lclavicle -1.22348e-014 5.00689e-015
lhumerus -35.1831 12.6314 72.623
lradius 27.7503
lwrist -6.11853
lhand -19.9861 27.9856
lfingers 7.12502
lthumb 6.35322 57.8704
rfemur -3.42499 2.69406 1.83644
rtibia 26.2879
rfoot 2.79484 -8.03385
rtoes -2.37706
lfemur 3.39963 -6.06046 -8.68171
ltibia 20.7139
lfoot -9.36172 8.70654
ltoes -26.3176
391
root 1.38272 17.6059 9.19933 354.819 13.0092 359.1
lowerback 11.1768 0.351523 -4.71314
upperback 0.618097 -0.0402192 1.43451
thorax -5.62513 0.120368 4.18095
lowerneck -11.1233 -10.0406 -14.9714
upperneck 30.6381 -15.4846 13.3824
head 14.801 -6.94077 5.38594
rclavicle 3.90396e-014 -7.2339e-015
rhumerus -43.9481 -26.9655 -68.1563
rradius 34.1977
rwrist 5.96849
rhand -23.4085 7.45378
rfingers 7.12502
rthumb 3.04863 -22.5042
lclavicle 3.90396e-014 -7.2339e-015
lhumerus -35.3817 12.7561 72.4229
lradius 27.8103
lwrist -6.36777
lhand -19.5267 28.3935
lfingers 7.12502
lthumb 6.79676 58.2644
rfemur -3.04911 2.97521 2.30589
rtibia 25.9129
rfoot 1.4757 -8.4866
rtoes -4.58845
lfemur 3.27094 -6.13504 -8.10742
ltibia 21.0774
lfoot -9.17267 8.70852
ltoes -27.3926
